<svg width="26" height="26" viewBox="0 0 26 26" fill="none" xmlns="http://www.w3.org/2000/svg">
<path d="M12.5707 3.23684C16.4253 2.94392 19.7385 6.07711 20.031 9.89753C20.1948 12.0366 19.2762 13.8021 18.2753 15.6443C17.5972 16.8924 16.8596 18.0889 16.0701 19.2677L14.7455 21.2202L13.8782 22.4522C13.728 22.6615 13.5348 22.9849 13.3367 23.1415C12.788 23.4877 12.5315 23.0141 12.2714 22.6588L11.5376 21.65C10.432 20.1291 9.34294 18.4396 8.40135 16.8223C7.38908 15.0836 6.20984 13.0233 5.97665 10.9838C5.57045 7.43124 8.17152 4.08636 11.6346 3.36515C11.9441 3.30069 12.2572 3.2717 12.5707 3.23684ZM12.7804 4.34181C11.6158 4.43331 10.6213 4.74474 9.65555 5.41436C7.97763 6.57781 6.90006 8.67568 7.06174 10.7313C7.26406 13.3035 10.0064 17.4493 11.4734 19.5999C11.9658 20.322 12.4594 21.0474 12.9916 21.7408C13.0354 21.6907 13.0827 21.6413 13.1238 21.5892L13.1311 21.5772C13.2694 21.3534 13.4447 21.1425 13.597 20.9273C15.2114 18.6464 18.3591 14.0167 18.8495 11.4524C19.3099 9.04471 18.1118 6.47635 16.0421 5.19575C15.0573 4.5864 13.9313 4.32611 12.7804 4.34181Z" fill="#74AE38"/>
<path d="M12.8574 7.02536C12.9975 7.00348 13.1566 7.02308 13.2971 7.03735C14.8318 7.1932 16.0833 8.42703 16.2265 9.97652C16.4083 11.9429 15.0488 13.3451 13.1549 13.5199C12.318 13.5393 11.4988 13.2761 10.8575 12.7296C8.67441 10.8693 9.90595 7.23143 12.8574 7.02536ZM12.8574 8.1422C10.8961 8.32907 10.1537 10.7405 11.6321 11.9391C12.0361 12.2667 12.5995 12.4742 13.1238 12.4189C14.2443 12.3652 15.1895 11.3564 15.1383 10.2277C15.0843 9.03696 14.0705 8.04815 12.8574 8.1422Z" fill="#74AE38"/>
</svg>
