<svg width="19" height="18" viewBox="0 0 19 18" fill="none" xmlns="http://www.w3.org/2000/svg">
<path d="M1.47405 0.64082C1.33945 0.64492 1.20709 0.67427 1.08481 0.72715C0.96253 0.78003 0.85282 0.85536 0.76217 0.94867C0.67153 1.04199 0.60178 1.15139 0.55708 1.27041C0.51238 1.38943 0.493619 1.51564 0.501909 1.64157C0.636399 3.80147 1.2704 9.07161 4.30595 12.3583C7.94092 16.3181 12.6748 17.6824 17.5317 17.4808C17.792 17.4662 18.0367 17.3596 18.2165 17.1826C18.3962 17.0055 18.4975 16.7712 18.5 16.5268V13.0674C18.4969 12.7446 18.3782 12.4322 18.1629 12.1802C17.9476 11.9282 17.6482 11.7513 17.3126 11.6779L14.8804 11.1739C14.5795 11.1138 14.2664 11.1397 13.9814 11.2481C13.6964 11.3566 13.4528 11.5427 13.2819 11.7823L12.744 12.5454C12.6946 12.6153 12.6207 12.6668 12.5352 12.6911C12.4496 12.7154 12.3576 12.711 12.2752 12.6786C11.0379 12.1783 6.10806 10.0184 5.56628 6.37534C5.55566 6.30498 5.56751 6.23326 5.60033 6.1692C5.63316 6.10514 5.68548 6.05161 5.75071 6.01536L6.7267 5.45739C6.9944 5.30196 7.20467 5.07324 7.32906 4.80218C7.45345 4.53112 7.48596 4.2308 7.42218 3.94186L6.88808 1.62358C6.81 1.29875 6.61418 1.00932 6.33394 0.80454C6.05371 0.59976 5.70639 0.492295 5.3511 0.50043L1.47405 0.64082Z" stroke="#74AE38"/>
</svg>
